<svg xmlns="http://www.w3.org/2000/svg" viewBox="0 0 200 200"><defs><style>.cls-1{fill:#fff;}</style></defs><title>skills_icons</title><g id="Layer_6" data-name="Layer 6"><rect class="cls-1" x="29.6" y="188.96" width="150.13" height="8.17" rx="4.09"/><rect class="cls-1" x="94.89" y="53.84" width="74.18" height="6.47" rx="3.23" transform="matrix(0.81, 0.59, -0.59, 0.81, 59.16, -66.92)"/><polygon class="cls-1" points="110.79 33.3 123.21 5.72 182.79 49.13 160.15 69.21 110.79 33.3"/><path class="cls-1" d="M152.15,81.47l-50-36.09L59,77.89c8.19,39.8-11.67,85.43-13.18,88.82a8,8,0,0,0-5.06,12.77l56.85-78.89a8.4,8.4,0,0,1,6.73-13.42,8.41,8.41,0,1,1-2.83,16.31L44.79,182.25a8.18,8.18,0,0,0,2.34.35,8,8,0,0,0,8-8,7.36,7.36,0,0,0-.11-1.25c44.49-38.61,80.11-40.65,80.11-40.65Z"/></g></svg>