<svg xmlns="http://www.w3.org/2000/svg" viewBox="0 0 200 200"><defs><style>.cls-1,.cls-3,.cls-4{fill:none;stroke:#fff;stroke-miterlimit:10;}.cls-1{stroke-width:5px;}.cls-2{fill:#fff;}.cls-3{stroke-width:3px;}.cls-4{stroke-width:4px;}</style></defs><title>skills_icons</title><g id="Layer_4" data-name="Layer 4"><rect class="cls-1" x="8.83" y="8.7" width="152.43" height="154.21" rx="7.79"/><path class="cls-1" d="M161.26,36.79V155.13a7.78,7.78,0,0,1-7.79,7.78H38.19v20.3A7.79,7.79,0,0,0,46,191H182.83a7.79,7.79,0,0,0,7.79-7.79V44.57a7.78,7.78,0,0,0-7.79-7.78Z"/><circle class="cls-2" cx="20.15" cy="20.45" r="3.83"/><circle class="cls-2" cx="30.7" cy="20.45" r="3.83"/><circle class="cls-2" cx="42.02" cy="20.45" r="3.83"/><line class="cls-3" x1="8.83" y1="29.21" x2="161.26" y2="29.21"/><line class="cls-3" x1="66.02" y1="29.21" x2="66.02" y2="162.91"/><line class="cls-4" x1="20.15" y1="39.77" x2="34.53" y2="39.77"/><line class="cls-4" x1="20.15" y1="50.32" x2="52.06" y2="50.32"/><line class="cls-4" x1="20.15" y1="60.87" x2="38.19" y2="60.87"/><line class="cls-4" x1="20.15" y1="71.43" x2="44.91" y2="71.43"/><line class="cls-4" x1="20.15" y1="81.98" x2="57.51" y2="81.98"/><line class="cls-4" x1="20.15" y1="92.53" x2="48.83" y2="92.53"/><line class="cls-4" x1="20.15" y1="103.09" x2="38.19" y2="103.09"/><line class="cls-4" x1="75.47" y1="39.77" x2="98.7" y2="39.77"/><line class="cls-4" x1="75.47" y1="50.32" x2="126.45" y2="50.32"/><line class="cls-4" x1="75.47" y1="60.87" x2="131.38" y2="60.87"/><line class="cls-4" x1="75.47" y1="71.43" x2="113.17" y2="71.43"/><line class="cls-4" x1="75.47" y1="81.98" x2="109.94" y2="81.98"/><line class="cls-4" x1="75.47" y1="92.53" x2="121.34" y2="92.53"/><line class="cls-4" x1="75.47" y1="103.09" x2="98.7" y2="103.09"/><line class="cls-4" x1="75.47" y1="113.64" x2="105.85" y2="113.64"/><line class="cls-4" x1="75.47" y1="124.19" x2="138.36" y2="124.19"/><line class="cls-4" x1="75.47" y1="134.74" x2="149.26" y2="134.74"/><line class="cls-4" x1="75.47" y1="145.3" x2="123.89" y2="145.3"/></g></svg>