<svg xmlns="http://www.w3.org/2000/svg" viewBox="0 0 200 200"><defs><style>.cls-1{fill:#fff;}</style></defs><title>skills_icons</title><g id="Layer_3" data-name="Layer 3"><path class="cls-1" d="M186.56,55.2l-10.51-3.65c-.45-5.32-1.16-11.12-1.56-16.85-.89-12.76-7.79-15.7-15.83-17.49s-18,1.41-18,1.41l3.83,7.27c11.62-2.42,15.32-1.53,21.19,2.3,5.62,3.66,3.07,15.13,2.38,20.59l-23.35-8.09a18.24,18.24,0,0,0-14.05.88l-119.54,59A13.74,13.74,0,0,0,4.89,119L33.6,177.12A13.74,13.74,0,0,0,52,183.35l119.74-59.13A18.18,18.18,0,0,0,180.83,114l14.42-40.71A14.11,14.11,0,0,0,186.56,55.2ZM144.6,126,60.33,167.69a16.12,16.12,0,0,1-21.54-7.3l-17.9-36.22a16.14,16.14,0,0,1,7.29-21.55L112.45,61A16.14,16.14,0,0,1,134,68.27l17.9,36.22A16.14,16.14,0,0,1,144.6,126Zm21.08-41.93a7.66,7.66,0,0,1-1.24-15.21c.32,1.66,1.32,3.12,4.3,4.36,2.44,1,3.61,1.48,4.33,1.2a7.64,7.64,0,0,1-7.39,9.65Z"/></g></svg>