<svg xmlns="http://www.w3.org/2000/svg" viewBox="0 0 200 200"><defs><style>.cls-1{fill:#fff;}.cls-2{fill:none;stroke:#fff;stroke-miterlimit:10;stroke-width:8px;}</style></defs><title>skills_icons</title><g id="Layer_5" data-name="Layer 5"><path class="cls-1" d="M21.68,102.06v43.07a4.59,4.59,0,0,0,4.6,4.59H44.49a4.59,4.59,0,0,0,4.6-4.59V102.06a4.6,4.6,0,0,0-4.6-4.59H26.28A4.6,4.6,0,0,0,21.68,102.06Zm13.53,45.75a2.51,2.51,0,1,1,2.51-2.51A2.52,2.52,0,0,1,35.21,147.81Zm11-7.62h-22v-34h22Z"/><path class="cls-1" d="M172.63,73.3H136.77c-5,0-9.05,3-9.05,6.72v63c0,3.71,4.05,6.72,9.05,6.72h35.86c5,0,9.05-3,9.05-6.72V80C181.68,76.31,177.63,73.3,172.63,73.3ZM154.7,147.81a2.51,2.51,0,1,1,2.51-2.51A2.52,2.52,0,0,1,154.7,147.81ZM176,140.19H132.75V81.47H176Z"/><path class="cls-1" d="M102.55,134.06H76.6S76.6,146,70.53,146h38.09C102.55,146,102.55,134.06,102.55,134.06Z"/><rect class="cls-1" x="53.17" y="115" width="70.47" height="15.49"/><path class="cls-2" d="M144.74,68.53V60.87a5.43,5.43,0,0,0-5.44-5.44H40.83a5.44,5.44,0,0,0-5.45,5.44v32"/></g></svg>