<svg id="Layer_1" data-name="Layer 1" xmlns="http://www.w3.org/2000/svg" viewBox="0 0 200 191.5"><defs><style>.cls-1{fill:#001ae6;}.cls-2{fill:#f5c217;}.cls-3{fill:#fff;}</style></defs><title>highlight_reel_cover</title><circle class="cls-1" cx="100" cy="91.5" r="50.39"/><path class="cls-2" d="M79.7,134.58,140,100,79.7,65.42Z" transform="translate(0 -8.5)"/><path class="cls-3" d="M0,31.18V27.41H2.79V12.62H0V8.85H10.79v3.77H8.44v4.9h6.09v-4.9H12.27V8.85H23v3.77H20.18V27.41H23v3.77H12.27V27.41h2.26v-6.1H8.44v6.1h2.35v3.77Z" transform="translate(0 -8.5)"/><path class="cls-3" d="M24.69,31.18V27.41h3.39V12.62H24.69V8.85H37.31v3.77H33.89V27.41h3.42v3.77Z" transform="translate(0 -8.5)"/><path class="cls-3" d="M53.76,23.68V19.91H64.23a12.19,12.19,0,0,1-1.47,6.44,10,10,0,0,1-4.27,3.74,14.15,14.15,0,0,1-6.28,1.36q-6.06,0-9.29-3.24A11.16,11.16,0,0,1,39.69,20a11.59,11.59,0,0,1,1.6-6.12,10.36,10.36,0,0,1,4.32-4A13.16,13.16,0,0,1,51.5,8.5c3,0,5.33.72,7,2.18V8.85h3.79v7.93H58.5a5.55,5.55,0,0,0-2.36-3.16,6.81,6.81,0,0,0-3.79-1.16,6.17,6.17,0,0,0-4.54,1.89,7.07,7.07,0,0,0-1.88,5.22,8.11,8.11,0,0,0,1.91,5.82,6.21,6.21,0,0,0,4.66,2,5.54,5.54,0,0,0,3.35-1,5,5,0,0,0,1.85-2.73Z" transform="translate(0 -8.5)"/><path class="cls-3" d="M66.77,31.18V27.41h2.79V12.62H66.77V8.85H77.56v3.77H75.21v4.9H81.3v-4.9H79V8.85H89.74v3.77H87V27.41h2.79v3.77H79V27.41H81.3v-6.1H75.21v6.1h2.35v3.77Z" transform="translate(0 -8.5)"/><path class="cls-3" d="M91.65,31.18V27.41h3.2V12.62h-3.2V8.85h12.27v3.77h-3.26V27.41h6.6V20.5h4.35V31.18Z" transform="translate(0 -8.5)"/><path class="cls-3" d="M112.7,31.18V27.41h3.39V12.62H112.7V8.85h12.62v3.77H121.9V27.41h3.42v3.77Z" transform="translate(0 -8.5)"/><path class="cls-3" d="M141.77,23.68V19.91h10.47a12.19,12.19,0,0,1-1.47,6.44,10,10,0,0,1-4.27,3.74,14.15,14.15,0,0,1-6.28,1.36q-6.06,0-9.29-3.24A11.17,11.17,0,0,1,127.69,20a11.6,11.6,0,0,1,1.61-6.12,10.36,10.36,0,0,1,4.32-4,13.16,13.16,0,0,1,5.89-1.34c3,0,5.33.72,7,2.18V8.85h3.79v7.93h-3.79a5.55,5.55,0,0,0-2.36-3.16,6.81,6.81,0,0,0-3.79-1.16,6.15,6.15,0,0,0-4.54,1.89,7,7,0,0,0-1.88,5.22,8.07,8.07,0,0,0,1.91,5.82,6.19,6.19,0,0,0,4.65,2,5.55,5.55,0,0,0,3.36-1,5,5,0,0,0,1.85-2.73Z" transform="translate(0 -8.5)"/><path class="cls-3" d="M154.78,31.18V27.41h2.79V12.62h-2.79V8.85h10.78v3.77h-2.34v4.9h6.08v-4.9H167V8.85h10.71v3.77H175V27.41h2.79v3.77H167V27.41h2.26v-6.1h-6.08v6.1h2.34v3.77Z" transform="translate(0 -8.5)"/><path class="cls-3" d="M183.59,31.18V27.41H187V12.62h-3.36v5.2h-3.83v-9H200v9h-3.79v-5.2h-3.45V27.41h3.35v3.77Z" transform="translate(0 -8.5)"/><path class="cls-3" d="M69.77,194.49V200H59.84l-7.37-14.28H48.74v8.77h4.08V200h-17v-5.51h4.48v-21.6H35.77v-5.51H55.45q5.55,0,8,2.81a9.37,9.37,0,0,1,2.45,6.34q0,5.55-5.66,8.11l5.3,9.85Zm-21-14h2.91q5.39,0,5.39-3.84a3.35,3.35,0,0,0-1.23-2.84,5.51,5.51,0,0,0-3.39-.94H48.74Z" transform="translate(0 -8.5)"/><path class="cls-3" d="M71.28,200v-5.51h3.91v-21.6H71.28v-5.51H100v10.34H93.79v-4.83H83.68v7.53h8.16v5.51H83.68v8.56H93.79v-4.88H100V200Z" transform="translate(0 -8.5)"/><path class="cls-3" d="M103.31,200v-5.51h3.91v-21.6h-3.91v-5.51h28.74v10.34h-6.23v-4.83H115.71v7.53h8.16v5.51h-8.16v8.56h10.11v-4.88h6.23V200Z" transform="translate(0 -8.5)"/><path class="cls-3" d="M135.08,200v-5.51h4.67v-21.6h-4.67v-5.51H153v5.51h-4.76v21.6h9.64V184.41h6.36V200Z" transform="translate(0 -8.5)"/></svg>