<svg xmlns="http://www.w3.org/2000/svg" viewBox="0 0 200 200"><defs><style>.cls-1{fill:#fff;}</style></defs><title>skills_icons</title><g id="Layer_2" data-name="Layer 2"><path class="cls-1" d="M91.1,54.06l0-9.82-7.74-1.41a34.07,34.07,0,0,0-1.33-5l6.07-5-4.85-8.55-7.43,2.63a33.75,33.75,0,0,0-3.65-3.72L75,15.74l-8.45-5L61.4,16.66a34.25,34.25,0,0,0-5.64-1.54L54.38,7.39H44.56l-1.38,7.73a34.47,34.47,0,0,0-6.25,1.78l-5.25-5.82-8.34,5.19,2.91,7.28a35,35,0,0,0-3.59,3.82l-7.45-2.46-4.66,8.64,6.11,4.87a34.74,34.74,0,0,0-1.23,5.12L7.77,45.09,8,54.91l7.72,1.19a33.09,33.09,0,0,0,1.48,5.06l-5.88,5.15,5.07,8.41,7.32-2.81a36.21,36.21,0,0,0,3.78,3.65L24.94,83l8.57,4.78,5-6.07A34.35,34.35,0,0,0,43.56,83L45,90.68l9.82-.1,1.29-7.74a33.92,33.92,0,0,0,5-1.4l5.1,6,8.47-5L72,75.05a35.51,35.51,0,0,0,3.67-3.69L83.12,74,88,65.52l-6-5.06a34.32,34.32,0,0,0,1.35-5ZM49.47,72.49A23.48,23.48,0,1,1,73,49,23.51,23.51,0,0,1,49.47,72.49Z"/><path class="cls-1" d="M181.68,90.06c-7.32-10-13.45-29.95-13.79-39.15s-6.12-24.34-30.29-36.76-59.41-3.92-59.41-3.92c2.64,3.49,1,7.83,1,7.83a12.57,12.57,0,0,1,5.7.34c2.47.94,5.28,5.2,7.49,11s-2.46,8.51-2.46,8.51,4.68,2.56,5.7,4.26,1.45,9.62,0,13.7-5.87,3.58-5.87,3.58a12.07,12.07,0,0,1,2.8,4.51c1.11,3-1,7.32-4,12.42S80,79.6,80,79.6a29.9,29.9,0,0,1,.08,4.25c-.08,3-2.12,4.34-9.44,8.34s-10.39-1.45-10.39-1.45c0,5.2-6.55,6.22-6.55,6.22H45.17c-6.72,0-7.57-7-7.57-7-6.47,8.51-14.22-.26-14.22-.26C23,111,41.09,131.43,51,139.94s14.81,11.4,17.53,17.19,1,35.19,1,35.19H139v-19c0-6.47,19.91-9.36,29.61-9.36s11.58-6.13,11.58-9.54-1-8.17-.68-10.89,3.23-3.4,3.74-6.3-4.25-4.42-4.59-5.44,1.7-2.39,4.42-3.24,1.53-3.57.34-5.27S182,112.87,182,112.87s10.3,3.07,10.3-5.44S189,100.11,181.68,90.06Zm-80.82,32.49-3.64.64a16.73,16.73,0,0,1-.64,2.36l2.83,2.38-2.3,4-3.49-1.25a15.61,15.61,0,0,1-1.72,1.73l1.28,3.48-4,2.33-2.4-2.81a15.34,15.34,0,0,1-2.37.66l-.61,3.64-4.61,0-.69-3.62a16.07,16.07,0,0,1-2.39-.6l-2.33,2.85-4-2.25,1.2-3.48a16.9,16.9,0,0,1-1.77-1.72l-3.44,1.33-2.38-4,2.76-2.42a15.74,15.74,0,0,1-.69-2.37L61.82,123l-.11-4.61,3.6-.73a14.86,14.86,0,0,1,.58-2.41L63,112.91l2.19-4.06L68.7,110a16.9,16.9,0,0,1,1.69-1.8L69,104.79l3.92-2.44,2.47,2.74a16,16,0,0,1,2.94-.84l.64-3.63h4.62l.64,3.63a15.83,15.83,0,0,1,2.66.73l2.41-2.79,4,2.35L92,108a15.7,15.7,0,0,1,1.71,1.75l3.5-1.23,2.27,4-2.85,2.36a14.75,14.75,0,0,1,.62,2.37l3.65.66Z"/><path class="cls-1" d="M81.3,109.15a11,11,0,1,0,11,11A11,11,0,0,0,81.3,109.15Zm0,16.66a5.62,5.62,0,1,1,5.62-5.62A5.62,5.62,0,0,1,81.29,125.81Z"/></g></svg>