<svg id="Layer_1" data-name="Layer 1" xmlns="http://www.w3.org/2000/svg" viewBox="0 0 75 75"><defs><style>.cls-1{fill:#001ae6;}.cls-2{fill:#f5c217;}</style></defs><circle class="cls-1" cx="37.5" cy="37.5" r="37.5"/><path class="cls-2" d="M44.68,37.5a7.18,7.18,0,1,1-7.18-7.18A7.19,7.19,0,0,1,44.68,37.5Z"/><path class="cls-2" d="M54.29,24.8a6.9,6.9,0,0,0-1.61-2.48,6.82,6.82,0,0,0-2.48-1.61,12.18,12.18,0,0,0-4-.74c-2.27-.1-3-.12-8.7-.12s-6.43,0-8.7.12a12.18,12.18,0,0,0-4,.74,7.11,7.11,0,0,0-4.09,4.09,12.18,12.18,0,0,0-.74,4c-.1,2.27-.12,2.95-.12,8.7s0,6.43.12,8.7a12.18,12.18,0,0,0,.74,4,7.11,7.11,0,0,0,4.09,4.09,12.18,12.18,0,0,0,4,.74c2.27.1,2.95.12,8.7.12s6.43,0,8.7-.12a12.18,12.18,0,0,0,4-.74,7.16,7.16,0,0,0,4.09-4.09,12.18,12.18,0,0,0,.74-4c.1-2.27.12-3,.12-8.7s0-6.43-.12-8.7A12.18,12.18,0,0,0,54.29,24.8ZM37.5,48.56A11.06,11.06,0,1,1,48.56,37.5,11.06,11.06,0,0,1,37.5,48.56ZM49,28.59A2.59,2.59,0,1,1,51.58,26,2.59,2.59,0,0,1,49,28.59Z"/><path class="cls-2" d="M37.5,0A37.5,37.5,0,1,0,75,37.5,37.5,37.5,0,0,0,37.5,0ZM58.9,46.38a15.72,15.72,0,0,1-1,5.22,11,11,0,0,1-6.3,6.3,15.66,15.66,0,0,1-5.22,1c-2.3.11-3,.13-8.88.13s-6.58,0-8.88-.13a15.72,15.72,0,0,1-5.22-1,10.95,10.95,0,0,1-6.3-6.3,15.66,15.66,0,0,1-1-5.22c-.11-2.3-.13-3-.13-8.88s0-6.58.13-8.88a15.47,15.47,0,0,1,1-5.22,10.95,10.95,0,0,1,6.3-6.3,15.72,15.72,0,0,1,5.22-1c2.3-.11,3-.13,8.88-.13s6.58,0,8.88.13a15.72,15.72,0,0,1,5.22,1,10.95,10.95,0,0,1,6.3,6.3,15.47,15.47,0,0,1,1,5.22c.11,2.3.13,3,.13,8.88S59,44.08,58.9,46.38Z"/></svg>