<svg xmlns="http://www.w3.org/2000/svg" viewBox="0 0 559.15 293.27"><defs><style>.cls-1{font-size:50px;fill:#25408f;font-family:Rockwell;}.cls-2{fill:#f4c133;}.cls-3{fill:none;stroke:#f4c133;stroke-miterlimit:10;stroke-width:8px;}</style></defs><title>logo</title><g id="type_right"><g id="colour-2" data-name="colour"><g id="type-3" data-name="type"><text class="cls-1" transform="translate(328.14 103.07)">Alec <tspan x="0" y="60">Riddick </tspan><tspan x="0" y="120">Design</tspan></text></g><g id="logo_design-6" data-name="logo_design"><path class="cls-2" d="M63.32,170.68c2.18-6.56,4.05-7.51,11.86-7.51h25.61V150.68H79.86c-8.73,0-9-.32-6.55-7.5L93,88.82c3.44-9.37,6.57-16.88,7.49-18.44h.31V41.49a25.5,25.5,0,0,1-5.93,2.65c.94,5-.93,10.94-5.3,22.18L57.68,150.68c-13.11,35-21.87,55.3-27.49,69.67C25.82,231.61,19,235,11.44,235.67l-10.3.94c-1.88,1.55-1.26,6.55.62,7.81,8.44-.32,19.68-.94,30-.94,14.68.32,24.37.32,32.48.94,2.82-1.26,2.82-6.26.63-7.81l-10.31-.94c-7.5-.63-9.05-2.51-9.05-6.25,0-3.45,2.17-11.88,6.87-25.94Z"/><path class="cls-2" d="M291,255.49a36.64,36.64,0,0,1-21.56-9.15c-21.25-18.62-37.81-44.76-62.8-86.91-1.56-2.61-3.12-5.88-1.56-7.83,15.62-6.55,39.06-23.53,39.06-54.56,0-22.88-10.94-37.58-25.94-45.75-14.38-8.16-32.81-9.8-52.18-9.8-4.26,0-8.32,0-12.24.06v10h9.72v0h2.21c34.68,0,50,24.52,50,50.32,0,22.21-7.19,33.65-15.62,40.52-9.07,7.18-20.94,8.49-32.19,8.49H153.8v9.81h3l3.27,0c12.49,0,17.49,3.28,22.17,10.46,9.7,14.71,22.51,37.24,30.63,49.33,22.19,33,38.11,41.17,64.67,41.17,5.94,0,10.94-.65,13.76-1.64C292.9,258.75,292.58,256.14,291,255.49Z"/><line class="cls-3" x1="130.71" x2="130.71" y2="293.27"/></g></g></g></svg>