<svg id="Layer_1" data-name="Layer 1" xmlns="http://www.w3.org/2000/svg" viewBox="0 0 200 200"><defs><style>.cls-1,.cls-3{fill:none;stroke:#fff;stroke-miterlimit:10;}.cls-1{stroke-width:6px;}.cls-2{fill:#fff;}.cls-3{stroke-width:3px;}</style></defs><title>skills_icons</title><path class="cls-1" d="M161,189H48.55a9.54,9.54,0,0,1-9.57-9.5V20.59a9.54,9.54,0,0,1,9.57-9.5H150.43a9.54,9.54,0,0,1,9.57,9.5Z"/><polyline class="cls-1" points="38.98 55.26 109.43 55.26 125.25 42.49 160.13 42.49"/><polygon class="cls-2" points="48.91 112.57 48.91 132.11 58.68 122.34 48.91 112.57"/><line class="cls-1" x1="147.34" y1="42.49" x2="147.34" y2="189.04"/><line class="cls-1" x1="147.34" y1="57.81" x2="160.23" y2="57.81"/><line class="cls-1" x1="147.34" y1="173.72" x2="160.23" y2="173.72"/><circle class="cls-1" cx="61.43" cy="32.79" r="9.19"/><circle class="cls-3" cx="85.63" cy="21.67" r="3.93"/><circle class="cls-3" cx="98.35" cy="21.67" r="3.93"/><circle class="cls-3" cx="111.12" cy="21.67" r="3.93"/></svg>