<svg id="Layer_1" data-name="Layer 1" xmlns="http://www.w3.org/2000/svg" viewBox="0 0 75 75"><defs><style>.cls-1{fill:#001ae6;}.cls-2{fill:#f5c217;}</style></defs><circle class="cls-1" cx="37.5" cy="37.5" r="37.5"/><path class="cls-2" d="M37.5,0A37.5,37.5,0,1,0,75,37.5,37.5,37.5,0,0,0,37.5,0ZM56,31.59c0,.38,0,.77,0,1.16,0,11.84-9,25.5-25.5,25.5a25.38,25.38,0,0,1-13.74-4,18.92,18.92,0,0,0,2.14.12,18,18,0,0,0,11.13-3.84,9,9,0,0,1-8.37-6.22,9.2,9.2,0,0,0,1.68.16,8.73,8.73,0,0,0,2.36-.32,9,9,0,0,1-7.19-8.78v-.12a8.78,8.78,0,0,0,4.06,1.12,9,9,0,0,1-2.77-12A25.45,25.45,0,0,0,38.3,33.75a8.57,8.57,0,0,1-.24-2,9,9,0,0,1,15.51-6.13,18.07,18.07,0,0,0,5.69-2.18,9,9,0,0,1-3.94,5A18.18,18.18,0,0,0,60.47,27,18.1,18.1,0,0,1,56,31.59Z"/></svg>