<svg id="Layer_1" data-name="Layer 1" xmlns="http://www.w3.org/2000/svg" viewBox="0 0 75 75"><defs><style>.cls-1{fill:#001ae6;}.cls-2{fill:#f5c217;}</style></defs><circle class="cls-1" cx="37.5" cy="37.5" r="37.5"/><path class="cls-2" d="M32.83,44.53l12.2-7-12.2-7Z"/><path class="cls-2" d="M37.5,0A37.5,37.5,0,1,0,75,37.5,37.5,37.5,0,0,0,37.5,0ZM60.93,37.54s0,7.6-1,11.27a5.88,5.88,0,0,1-4.13,4.13c-3.67,1-18.34,1-18.34,1s-14.63,0-18.34-1A5.88,5.88,0,0,1,15,48.77c-1-3.63-1-11.27-1-11.27s0-7.6,1-11.27a6,6,0,0,1,4.13-4.17c3.67-1,18.34-1,18.34-1s14.67,0,18.34,1A5.88,5.88,0,0,1,60,26.23C61,29.9,60.93,37.54,60.93,37.54Z"/></svg>